<?xml version="1.0" encoding="UTF-8" standalone="no"?>
<!-- Created with Inkscape (http://www.inkscape.org/) -->

<svg
   width="210mm"
   height="210mm"
   viewBox="0 0 210 210"
   version="1.1"
   id="svg1"
   inkscape:export-filename="icon-192x192.png"
   inkscape:export-xdpi="23.222857"
   inkscape:export-ydpi="23.222857"
   inkscape:version="1.3.2 (091e20e, 2023-11-25, custom)"
   sodipodi:docname="drawing.svg"
   xmlns:inkscape="http://www.inkscape.org/namespaces/inkscape"
   xmlns:sodipodi="http://sodipodi.sourceforge.net/DTD/sodipodi-0.dtd"
   xmlns="http://www.w3.org/2000/svg"
   xmlns:svg="http://www.w3.org/2000/svg">
  <sodipodi:namedview
     id="namedview1"
     pagecolor="#ffffff"
     bordercolor="#000000"
     borderopacity="0.25"
     inkscape:showpageshadow="2"
     inkscape:pageopacity="0.0"
     inkscape:pagecheckerboard="0"
     inkscape:deskcolor="#d1d1d1"
     inkscape:document-units="mm"
     inkscape:zoom="0.67405754"
     inkscape:cx="396.10862"
     inkscape:cy="560.78299"
     inkscape:window-width="2285"
     inkscape:window-height="1360"
     inkscape:window-x="1139"
     inkscape:window-y="63"
     inkscape:window-maximized="0"
     inkscape:current-layer="layer1" />
  <defs
     id="defs1" />
  <g
     inkscape:label="Layer 1"
     inkscape:groupmode="layer"
     id="layer1">
    <path
       style="fill:none;stroke:#000000;stroke-width:3.365;stroke-linecap:round;stroke-opacity:1"
       d="m 69.869159,195.47663 c -0.392523,-7.45794 40.429901,-11.7757 40.429901,-11.7757 0,0 37.28973,-1.17757 37.68225,6.6729 -0.39252,7.85046 -40.82243,9.42056 -40.82243,9.42056 0,0 -37.289721,1.17757 -37.289721,-4.31776 z"
       id="path1"
       sodipodi:nodetypes="ccccc" />
    <path
       style="fill:none;stroke:#000000;stroke-width:3.365;stroke-linecap:round;stroke-opacity:1"
       d="m 102.4486,193.12149 c 5.88785,-4.71028 0,-97.738314 0,-100.093454 0,-2.355139 5.49532,99.308414 14.91588,97.345794"
       id="path2"
       sodipodi:nodetypes="csc" />
    <path
       style="fill:none;stroke:#000000;stroke-width:3.365;stroke-linecap:round;stroke-opacity:1"
       d="m 73.009345,15.700934 c 0,0 -10.990654,44.35514 -9.420561,60.841121 7.065421,12.560748 16.485981,16.878504 41.214956,15.700934 23.5514,-0.785047 32.57944,-21.19626 32.18692,-27.08411 0,-15.700935 -16.87851,-51.028038 -16.87851,-51.028038"
       id="path3"
       sodipodi:nodetypes="ccccc" />
    <path
       style="fill:none;stroke:#000000;stroke-width:3.365;stroke-linecap:round;stroke-linejoin:bevel;stroke-opacity:1"
       d="m 73.794393,15.700935 c 0,0 10.59813,-6.6728975 23.551401,-6.2803742 12.560746,-0.3925233 23.158876,4.3177572 23.158876,4.3177572 0,0 -14.91589,5.88785 -22.766353,5.88785 -9.420561,0 -23.943924,-3.925233 -23.943924,-3.925233 z"
       id="path4"
       sodipodi:nodetypes="ccccc" />
  </g>
</svg>
